<svg width="633" height="731" viewBox="0 0 633 731" fill="none" xmlns="http://www.w3.org/2000/svg">
<ellipse cx="316.5" cy="665.5" rx="316.5" ry="65.5" fill="#49163E"/>
<path d="M369.977 304.725H234.678V456.021H369.977V304.725Z" fill="#CCCCCC"/>
<path d="M165.799 683.579H96.9194L89.5395 624.537H173.179L165.799 683.579Z" fill="#E6E6E6"/>
<path d="M304.112 640.814L301.787 672.592C301.682 674.03 301.886 675.475 302.384 676.828C302.883 678.181 303.665 679.412 304.679 680.438C305.692 681.465 306.913 682.262 308.26 682.778C309.607 683.293 311.049 683.515 312.488 683.428L328.81 682.439C329.566 682.393 330.303 682.181 330.968 681.818C331.633 681.455 332.211 680.95 332.658 680.339C333.106 679.728 333.414 679.026 333.56 678.283C333.706 677.539 333.687 676.772 333.503 676.037L324.443 639.797L304.112 640.814Z" fill="#E6E6E6"/>
<path d="M440.635 659.605C459.845 664.099 473.567 670.487 482.582 679.131C485.792 682.186 489.993 683.987 494.419 684.206C500.073 684.503 504.695 683.869 508.169 682.317H508.17C509.06 681.925 509.829 681.302 510.396 680.512C510.964 679.723 511.31 678.795 511.398 677.827C511.504 676.843 511.344 675.849 510.935 674.948C510.527 674.046 509.885 673.271 509.076 672.701L463.517 640.284L444.166 648.026L439.651 652.54C439.163 653.029 438.794 653.625 438.574 654.28C438.354 654.936 438.29 655.633 438.385 656.318C438.481 657.002 438.733 657.656 439.124 658.226C439.514 658.796 440.032 659.269 440.635 659.605H440.635Z" fill="#E6E6E6"/>
<path d="M381.519 140.754L251.296 139.548C251.623 120.58 256.036 101.954 265.682 85.2859C272.018 74.3392 271.881 62.4259 270.354 52.3891C267.998 36.9004 273.477 21.0531 285.652 11.1934C294.956 3.64545 306.698 -0.239963 318.668 0.268994L321.197 0.374344C329.433 0.716656 337.452 3.12278 344.516 7.37178C351.58 11.6208 357.464 17.5765 361.627 24.6921C365.858 32.2883 367.565 41.0332 366.5 49.663C365.674 57.7828 367.649 65.9854 372.269 74.2661C380.239 92.4494 381.965 115.717 381.519 140.754Z" fill="#2F2E41"/>
<path d="M468.645 641.975L443.087 648.642L318.632 377.496L326.411 641.975H300.853C273.543 517.545 224.236 373.94 246.404 328.601L378.637 320.822L468.645 641.975Z" fill="#B30033"/>
<path d="M317.521 95.238C336.546 95.238 351.968 79.8147 351.968 60.7891C351.968 41.7635 336.546 26.3402 317.521 26.3402C298.496 26.3402 283.074 41.7635 283.074 60.7891C283.074 79.8147 298.496 95.238 317.521 95.238Z" fill="#FFB9B9"/>
<path d="M347.524 124.131L290.852 120.797C296.406 108.049 298.625 95.7732 296.408 84.1254H338.634C338.538 93.0686 342.989 108.539 347.524 124.131Z" fill="#FFB9B9"/>
<path d="M383.082 330.823L258.628 339.714L271.406 119.13L293.075 113.018L317.521 118.574L341.967 106.35L357.524 111.907L383.082 330.823Z" fill="#B30033"/>
<path d="M279.74 489.733L194.733 470.286C220.01 386.461 265.548 194.693 250.849 126.353L295.297 106.35L279.74 489.733Z" fill="#E6E6E6"/>
<path d="M238.625 247.48L206.401 227.477L233.883 146.984C236.948 138.678 242.819 131.704 250.481 127.268L259.738 121.908L254.182 203.03L238.625 247.48Z" fill="#E6E6E6"/>
<path d="M456.977 471.397C430.147 486.921 363.081 495.574 333.634 484.732C331.467 408.995 327.217 194.763 340.856 104.128L389.75 124.131L385.305 184.138C361.93 235.472 429.805 414.266 456.977 471.397Z" fill="#E6E6E6"/>
<path d="M453.088 237.479L423.085 227.477L383.082 181.915L389.75 124.13L456.422 217.476L453.088 237.479Z" fill="#E6E6E6"/>
<path d="M359.061 280.732C359.551 282.887 360.877 284.758 362.745 285.937C364.614 287.116 366.874 287.505 369.03 287.02L394.498 281.253L390.817 264.996L365.349 270.762C363.193 271.251 361.319 272.576 360.14 274.445C358.961 276.315 358.573 278.576 359.061 280.732V280.732Z" fill="#FFB9B9"/>
<path d="M347.524 51.899C328.39 44.031 309.493 43.4617 290.852 50.7878L283.074 23.0064H354.191L347.524 51.899Z" fill="#2F2E41"/>
<path d="M381.971 261.926L396.417 288.596C420.714 281.819 441.772 260.454 461.978 235.256L456.422 217.476L421.974 226.366L381.971 261.926Z" fill="#E6E6E6"/>
<path d="M371.415 206.919H366.97C366.97 144.051 354.026 100.239 341.412 100.239L340.301 95.7936C351.613 95.7936 358.825 114.028 362.883 129.325C368.385 150.063 371.415 177.619 371.415 206.919Z" fill="#3F3D56"/>
<path d="M269.184 191.361H264.739C264.739 133.784 277.772 98.0161 296.964 98.0161L295.853 102.461C282.578 102.461 269.184 129.95 269.184 191.361Z" fill="#3F3D56"/>
<path d="M369.192 219.143C375.329 219.143 380.304 214.167 380.304 208.03C380.304 201.893 375.329 196.918 369.192 196.918C363.055 196.918 358.08 201.893 358.08 208.03C358.08 214.167 363.055 219.143 369.192 219.143Z" fill="#3F3D56"/>
<path d="M251.404 218.031H246.96C246.96 202.1 255.932 189.139 266.961 189.139V193.584C258.383 193.584 251.404 204.551 251.404 218.031Z" fill="#3F3D56"/>
<path d="M286.963 218.031H282.518C282.518 204.551 275.539 193.584 266.961 193.584V189.139C277.99 189.139 286.963 202.1 286.963 218.031Z" fill="#3F3D56"/>
<path d="M284.741 223.588C287.195 223.588 289.185 221.598 289.185 219.143C289.185 216.688 287.195 214.698 284.741 214.698C282.286 214.698 280.296 216.688 280.296 219.143C280.296 221.598 282.286 223.588 284.741 223.588Z" fill="#3F3D56"/>
<path d="M249.182 223.588C251.637 223.588 253.627 221.598 253.627 219.143C253.627 216.688 251.637 214.698 249.182 214.698C246.727 214.698 244.737 216.688 244.737 219.143C244.737 221.598 246.727 223.588 249.182 223.588Z" fill="#3F3D56"/>
<path d="M193.621 178.268L221.354 183.22L284.74 273.353L251.066 265.429L193.621 178.268Z" fill="#B30033"/>
<path d="M188.703 177.165C188.28 177.171 187.867 177.291 187.506 177.512C187.146 177.732 186.851 178.046 186.654 178.419C186.456 178.793 186.362 179.213 186.382 179.635C186.402 180.057 186.535 180.466 186.767 180.819L246.018 270.721C246.348 271.223 246.859 271.58 247.445 271.717L275.012 278.204C275.477 278.313 275.964 278.279 276.409 278.105C276.853 277.931 277.235 277.626 277.502 277.23C277.77 276.835 277.911 276.367 277.906 275.89C277.902 275.412 277.752 274.947 277.478 274.557L212.424 182.055C212.248 181.803 212.023 181.588 211.764 181.423C211.505 181.258 211.215 181.145 210.912 181.092L189.147 177.205C189 177.179 188.852 177.165 188.703 177.165V177.165Z" fill="#3F3D56"/>
<path d="M225.663 241.443L227.31 258.031L253.295 255.451C255.495 255.233 257.517 254.15 258.918 252.44C260.319 250.73 260.984 248.534 260.765 246.334C260.547 244.135 259.464 242.112 257.754 240.711C256.045 239.31 253.849 238.645 251.649 238.864L225.663 241.443Z" fill="#FFB9B9"/>
<path d="M203.067 239.522C203.105 245.178 205.377 250.59 209.387 254.578C213.397 258.566 218.821 260.808 224.477 260.815H228.75L231.861 234.891L206.105 225.618L203.067 239.522Z" fill="#E6E6E6"/>
<path d="M79.2314 602.695C96.9675 626.449 133.784 628.949 133.784 628.949C133.784 628.949 141.845 592.937 124.109 569.184C106.373 545.43 69.5562 542.93 69.5562 542.93C69.5562 542.93 61.4954 578.942 79.2314 602.695Z" fill="#E6E6E6"/>
<path d="M169.583 611.625C157.879 627.299 133.585 628.949 133.585 628.949C133.585 628.949 128.266 605.186 139.969 589.512C151.673 573.838 175.967 572.188 175.967 572.188C175.967 572.188 181.286 595.951 169.583 611.625Z" fill="#E6E6E6"/>
</svg>
